<svg xmlns="http://www.w3.org/2000/svg" xmlns:xlink="http://www.w3.org/1999/xlink" width="315" height="88" viewBox="0 0 315 88"><defs><clipPath id="b"><rect width="315" height="88"/></clipPath></defs><g id="a" clip-path="url(#b)"><g transform="translate(-346.664 -235.032)"><g transform="translate(-2 -149)"><path d="M32.928.98A19.617,19.617,0,0,1,23.52-1.127a15.86,15.86,0,0,1-6.076-5.537V0H6.664V-65.464H17.836V-40.18a15.868,15.868,0,0,1,6.076-5,20.379,20.379,0,0,1,9.016-1.862A22.1,22.1,0,0,1,44.2-44.149a20.531,20.531,0,0,1,7.889,8.281A26.8,26.8,0,0,1,54.978-23.03a26.8,26.8,0,0,1-2.891,12.838A20.531,20.531,0,0,1,44.2-1.911,22.1,22.1,0,0,1,32.928.98Zm-2.45-9.7a12.886,12.886,0,0,0,6.762-1.764,12.188,12.188,0,0,0,4.606-5,16.261,16.261,0,0,0,1.666-7.546,16.187,16.187,0,0,0-1.666-7.595,12.26,12.26,0,0,0-4.606-4.949,12.886,12.886,0,0,0-6.762-1.764,12.886,12.886,0,0,0-6.762,1.764,12.26,12.26,0,0,0-4.606,4.949,16.187,16.187,0,0,0-1.666,7.595,16.671,16.671,0,0,0,1.617,7.546,11.769,11.769,0,0,0,4.606,5A13.146,13.146,0,0,0,30.478-8.722Zm33.81,27.146a27.4,27.4,0,0,1-6.272-.735,20.387,20.387,0,0,1-5.39-2.009l3.136-8.526a31.063,31.063,0,0,0,3.822,1.323,14.726,14.726,0,0,0,3.92.539,10.357,10.357,0,0,0,3.724-.637,9.478,9.478,0,0,0,3.185-2.107,16.3,16.3,0,0,0,2.793-3.724L54.292-46.06H66.346L78.5-10.584,90.748-46.06H102.8L84.77,0a42.387,42.387,0,0,1-5.978,10.976,19.967,19.967,0,0,1-6.86,5.733A17.663,17.663,0,0,1,64.288,18.424ZM129.262.588q-7.84,0-11.466-3.528T114.17-13.916V-36.652h-9.8V-46.06h9.8V-59.192h11.27V-46.06H137v9.408H125.44V-14.9a6.071,6.071,0,0,0,1.568,4.557,6.517,6.517,0,0,0,4.7,1.519q1.176,0,2.793-.1a16.951,16.951,0,0,0,2.5-.294V-.294a22.4,22.4,0,0,1-3.479.637A36.879,36.879,0,0,1,129.262.588ZM166.8.98a28.926,28.926,0,0,1-12.74-2.744,21.687,21.687,0,0,1-9.065-8.085A24.175,24.175,0,0,1,141.61-23.03a24.587,24.587,0,0,1,3.185-12.74,22.2,22.2,0,0,1,8.526-8.33,24.476,24.476,0,0,1,12.005-2.94,26.007,26.007,0,0,1,11.956,2.6,19.745,19.745,0,0,1,7.938,7.105,18.885,18.885,0,0,1,2.842,10.29,16.224,16.224,0,0,1-.49,3.724,13.933,13.933,0,0,1-1.176,3.332h-33.32a13.533,13.533,0,0,0,2.4,6.419,11.835,11.835,0,0,0,5.047,3.92,18.808,18.808,0,0,0,7.35,1.323,22.073,22.073,0,0,0,7.889-1.323,30.991,30.991,0,0,0,6.713-3.577L186.1-5.194a29.924,29.924,0,0,1-8.82,4.606A33.613,33.613,0,0,1,166.8.98Zm-13.72-28.812H176.4a4.533,4.533,0,0,0,.147-.539,2.271,2.271,0,0,0,.049-.441,9.445,9.445,0,0,0-1.176-4.851,8.111,8.111,0,0,0-3.626-3.185,14.253,14.253,0,0,0-6.174-1.176,13.269,13.269,0,0,0-5.733,1.225,11.721,11.721,0,0,0-4.361,3.528A13.584,13.584,0,0,0,153.076-27.832Z" transform="translate(342 453)"/><path d="M27.72,0l3.344-29.216a6.76,6.76,0,0,0-1.188-4.092q-1.188-1.628-4.18-1.628a5.77,5.77,0,0,0-4.928,2.86A15.106,15.106,0,0,0,18.3-26.048Q15.224-4.136,14.872,0H3.08L7.92-41.36a24.3,24.3,0,0,1,5.632-.968q5.544,0,6.072,3.7a14.171,14.171,0,0,1,9.416-3.7q10.208,0,13.024,6.072,4.312-6.16,12.32-6.16,5.9,0,9.328,3.036a9.738,9.738,0,0,1,3.432,7.612,35.33,35.33,0,0,1-.528,4.664q-2.024,13.2-2.024,15.488,0,4.136,2.728,4.136,2.288,0,4.884-3.036t4.18-9.372a15.988,15.988,0,0,1,3.608,5.016Q75.416.44,63.8.44,58.344.44,55.7-2.9a11.2,11.2,0,0,1-2.64-7.04l2.112-19.448a6.256,6.256,0,0,0-1.232-3.96,4.653,4.653,0,0,0-3.916-1.584,6.456,6.456,0,0,0-4.708,2.024A10.9,10.9,0,0,0,42.5-27.72Q39.864-5.368,39.072,0Zm79.552-63.448a5.137,5.137,0,0,1,2.772-2.508,12.141,12.141,0,0,1,5.192-1.012,9.163,9.163,0,0,1,4.532.88q-.88,6.864-2.816,21.56Q112.9-13.816,112.9-10.692t2.64,3.124q2.288,0,4.752-2.86t4.488-9.372a13.162,13.162,0,0,1,3.432,5.192q-3.168,10.472-9.944,13.552a13.34,13.34,0,0,1-5.808,1.5q-7.832,0-10.472-5.632a14.337,14.337,0,0,1-11.7,5.72,16.4,16.4,0,0,1-12.012-4.84q-4.884-4.84-4.884-12.76,0-11.528,6.776-18.392a23.1,23.1,0,0,1,17.16-6.864h.528a21.293,21.293,0,0,1,6.776,1.056ZM98.648-35.464A10.7,10.7,0,0,0,89.716-31.2q-3.3,4.268-3.916,12.716a13.577,13.577,0,0,0-.088,1.5A10.584,10.584,0,0,0,87.78-10.12,6.544,6.544,0,0,0,93.1-7.568q5.544,0,8.36-7.832l2.288-18.92A14.223,14.223,0,0,0,98.648-35.464Z" transform="translate(534 451)"/></g></g></g></svg>